<svg xmlns="http://www.w3.org/2000/svg" viewBox="0 0 48 24" role="img" aria-label="Almuhallab Code"><g color="#ffffff"><path fill="none" stroke="currentColor" stroke-width="0.6" stroke-linecap="round" d="M5.5 18.95C15 19.5 32 19.5 43.4 18.85"/><path fill="currentColor" stroke="none" d="M4.6 12.6C6.3 13.9 8 14.8 9.8 15.15 15 16.4 23 16.5 30.4 15.55 34.6 15 37.7 14.2 40.3 13.2L43.35 6.85 44.35 7.3 41.4 14.4C38.4 18.2 33 20 25.8 20.35 18.4 20.75 11 19.4 7.7 16.7Z"/><path fill="none" stroke="currentColor" stroke-width="0.6" stroke-linecap="round" d="M9.6 16.05C15 17.3 23 17.4 30.3 16.45 34.5 15.9 37.5 15.1 39.6 14.2"/><path fill="none" stroke="currentColor" stroke-width="1.0" stroke-linecap="butt" d="M13 16 14.1 9.23"/><path fill="none" stroke="currentColor" stroke-width="1.0" stroke-linecap="butt" d="M26.8 16.4 28.63 7.79"/><path fill="none" stroke="currentColor" stroke-width="0.6" stroke-linecap="round" d="M7.6 5.2 18.4 11.9M20.5 2.2 35.6 12.6"/><path fill="currentColor" stroke="none" d="M7.6 5.2 18.4 11.9 9.2 13.4Z"/><path fill="currentColor" stroke="none" d="M20.5 2.2 35.6 12.6 23.6 14.4Z"/></g></svg>
