<svg viewBox="0 0 400 160" preserveAspectRatio="xMidYMid slice" xmlns="http://www.w3.org/2000/svg"><g><g stroke="#fff" stroke-width="3.5" stroke-linecap="round" stroke-linejoin="round" fill="none"><path d="M92 130V96q0-16 16-16t16 16v34Z" fill="#ffffff" fill-opacity="0.2"></path><path d="M140 130V96q0-16 16-16t16 16v34Z" fill="#ffffff" fill-opacity="0.2"></path><path d="M188 130V96q0-16 16-16t16 16v34Z" fill="#ffffff" fill-opacity="0.2"></path><path d="M236 130V96q0-16 16-16t16 16v34Z" fill="#ffffff" fill-opacity="0.2"></path><path d="M284 130V96q0-16 16-16t16 16v34Z" fill="#ffffff" fill-opacity="0.2"></path><path d="M84 74h232" stroke-width="4.5"></path><path d="M92 74l8-12h200l8 12" fill="#ffffff" fill-opacity="0.12"></path><g stroke-width="2.8"><path d="M130 74v8M126 82h8l3 14h-14Z" fill="#ffffff" fill-opacity="0.12"></path><path d="M130 96v4"></path><path d="M270 74v8M266 82h8l3 14h-14Z" fill="#ffffff" fill-opacity="0.12"></path><path d="M270 96v4"></path></g><path d="M84 134h232" stroke-width="4.5"></path></g></g></svg>
