<svg viewBox="0 0 48 48" fill="none" stroke="currentColor" stroke-linecap="round" stroke-linejoin="round" stroke-width="3" xmlns="http://www.w3.org/2000/svg"><path fill="currentColor" fill-opacity="0.14" stroke="none" d="M26 40V22c0-3-3-5-7-5s-7 2-7 5v18Z"></path><path d="M26 40V22c0-3-3-5-7-5s-7 2-7 5v18"></path><path d="M26 26c0-8 3-12 8-14"></path><path fill="currentColor" fill-opacity="0.14" stroke="none" d="M34 12a3 3 0 0 1 6 0c0 2-2 3-4 3l-3 1Z"></path><path d="M34 12a3 3 0 0 1 6 0c0 2-2 3-4 3l-3 1"></path><path d="M35 9V6M39 9V6" style="stroke-width: 2.75"></path><path d="M16 24h.01M22 27h.01M18 31h.01" opacity="0.6" style="stroke-width: 2.75"></path><path d="M6 40h36" opacity="0.45"></path></svg>
