<svg viewBox="0 0 48 48" fill="none" stroke="currentColor" stroke-linecap="round" stroke-linejoin="round" stroke-width="3" xmlns="http://www.w3.org/2000/svg"><path fill="currentColor" fill-opacity="0.14" stroke="none" d="M4 28h40v3H4Z"></path><path d="M4 28h40"></path><path d="M4 31h40" opacity="0.55" style="stroke-width: 2.75"></path><path fill="currentColor" fill-opacity="0.14" stroke="none" d="M29 28Q26.5 14 32 4l4 24Z"></path><path d="M29 28Q26.5 14 32 4l4 24"></path><path d="M29.8 9.3 5 28M28.7 13.8 12 28M28.2 20 19 28" opacity="0.6" style="stroke-width: 2.75"></path><path d="M8 31v8M20 31v8M32.5 31v8" opacity="0.6" style="stroke-width: 2.75"></path><path d="M4 40c4 0 4 2.5 8 2.5s4-2.5 8-2.5 4 2.5 8 2.5 4-2.5 8-2.5 4 2.5 8 2.5" opacity="0.45"></path></svg>
