<svg viewBox="0 0 48 48" fill="none" stroke="currentColor" stroke-linecap="round" stroke-linejoin="round" stroke-width="3" xmlns="http://www.w3.org/2000/svg"><path d="M6 13h36"></path><path fill="currentColor" fill-opacity="0.14" stroke="none" d="M10 13h7l-1 19a2.5 2.5 0 0 1-5 0Z"></path><path d="M10 13h7l-1 19a2.5 2.5 0 0 1-5 0Z"></path><path fill="currentColor" fill-opacity="0.14" stroke="none" d="M20.5 13h7l-1 24a2.5 2.5 0 0 1-5 0Z"></path><path d="M20.5 13h7l-1 24a2.5 2.5 0 0 1-5 0Z"></path><path fill="currentColor" fill-opacity="0.14" stroke="none" d="M31 13h7l-1 17a2.5 2.5 0 0 1-5 0Z"></path><path d="M31 13h7l-1 17a2.5 2.5 0 0 1-5 0Z"></path><path d="M6 40h36" opacity="0.45"></path></svg>
